<svg width="679" height="130" viewBox="0 0 679 130" fill="none" xmlns="http://www.w3.org/2000/svg">
<rect width="130" height="130" rx="20" fill="#FF8E3C"/>
<path d="M28 101.941C60.6237 103.544 70.0943 72.3379 67.7849 29C69.8022 61.2526 74.1505 73.0852 102 73.0852" stroke="white" stroke-width="10" stroke-linecap="round" stroke-linejoin="round"/>
<path d="M199.923 49.375C199.605 46.3977 198.264 44.0795 195.901 42.4205C193.56 40.7614 190.514 39.9318 186.764 39.9318C184.128 39.9318 181.866 40.3295 179.98 41.125C178.094 41.9205 176.651 43 175.651 44.3636C174.651 45.7273 174.139 47.2841 174.116 49.0341C174.116 50.4886 174.446 51.75 175.105 52.8182C175.787 53.8864 176.707 54.7955 177.866 55.5455C179.026 56.2727 180.31 56.8864 181.719 57.3864C183.128 57.8864 184.548 58.3068 185.98 58.6477L192.526 60.2841C195.162 60.8977 197.696 61.7273 200.128 62.7727C202.582 63.8182 204.776 65.1364 206.707 66.7273C208.662 68.3182 210.207 70.2386 211.344 72.4886C212.48 74.7386 213.048 77.375 213.048 80.3977C213.048 84.4886 212.003 88.0909 209.912 91.2045C207.821 94.2955 204.798 96.7159 200.844 98.4659C196.912 100.193 192.151 101.057 186.56 101.057C181.128 101.057 176.412 100.216 172.412 98.5341C168.435 96.8523 165.321 94.3977 163.071 91.1705C160.844 87.9432 159.639 84.0114 159.457 79.375H171.901C172.082 81.8068 172.832 83.8295 174.151 85.4432C175.469 87.0568 177.185 88.2614 179.298 89.0568C181.435 89.8523 183.821 90.25 186.457 90.25C189.207 90.25 191.616 89.8409 193.685 89.0227C195.776 88.1818 197.412 87.0227 198.594 85.5455C199.776 84.0455 200.378 82.2955 200.401 80.2955C200.378 78.4773 199.844 76.9773 198.798 75.7955C197.753 74.5909 196.287 73.5909 194.401 72.7955C192.537 71.9773 190.355 71.25 187.855 70.6136L179.912 68.5682C174.162 67.0909 169.616 64.8523 166.276 61.8523C162.957 58.8295 161.298 54.8182 161.298 49.8182C161.298 45.7045 162.412 42.1023 164.639 39.0114C166.889 35.9205 169.946 33.5227 173.81 31.8182C177.673 30.0909 182.048 29.2273 186.935 29.2273C191.889 29.2273 196.23 30.0909 199.957 31.8182C203.707 33.5227 206.651 35.8977 208.787 38.9432C210.923 41.9659 212.026 45.4432 212.094 49.375H199.923ZM238.847 101.057C235.528 101.057 232.54 100.466 229.881 99.2841C227.244 98.0795 225.153 96.3068 223.608 93.9659C222.085 91.625 221.324 88.7386 221.324 85.3068C221.324 82.3523 221.869 79.9091 222.96 77.9773C224.051 76.0455 225.54 74.5 227.426 73.3409C229.313 72.1818 231.438 71.3068 233.801 70.7159C236.188 70.1023 238.653 69.6591 241.199 69.3864C244.267 69.0682 246.756 68.7841 248.665 68.5341C250.574 68.2614 251.96 67.8523 252.824 67.3068C253.71 66.7386 254.153 65.8636 254.153 64.6818V64.4773C254.153 61.9091 253.392 59.9205 251.869 58.5114C250.347 57.1023 248.153 56.3977 245.29 56.3977C242.267 56.3977 239.869 57.0568 238.097 58.375C236.347 59.6932 235.165 61.25 234.551 63.0455L223.028 61.4091C223.938 58.2273 225.438 55.5682 227.528 53.4318C229.619 51.2727 232.176 49.6591 235.199 48.5909C238.222 47.5 241.563 46.9545 245.222 46.9545C247.744 46.9545 250.256 47.25 252.756 47.8409C255.256 48.4318 257.54 49.4091 259.608 50.7727C261.676 52.1136 263.335 53.9432 264.585 56.2614C265.858 58.5795 266.494 61.4773 266.494 64.9545V100H254.631V92.8068H254.222C253.472 94.2614 252.415 95.625 251.051 96.8977C249.71 98.1477 248.017 99.1591 245.972 99.9318C243.949 100.682 241.574 101.057 238.847 101.057ZM242.051 91.9886C244.528 91.9886 246.676 91.5 248.494 90.5227C250.313 89.5227 251.71 88.2045 252.688 86.5682C253.688 84.9318 254.188 83.1477 254.188 81.2159V75.0455C253.801 75.3636 253.142 75.6591 252.21 75.9318C251.301 76.2045 250.278 76.4432 249.142 76.6477C248.006 76.8523 246.881 77.0341 245.767 77.1932C244.653 77.3523 243.688 77.4886 242.869 77.6023C241.028 77.8523 239.381 78.2614 237.926 78.8295C236.472 79.3977 235.324 80.1932 234.483 81.2159C233.642 82.2159 233.222 83.5114 233.222 85.1023C233.222 87.375 234.051 89.0909 235.71 90.25C237.369 91.4091 239.483 91.9886 242.051 91.9886ZM278.903 100V47.6364H291.244V100H278.903ZM285.108 40.2045C283.153 40.2045 281.472 39.5568 280.062 38.2614C278.653 36.9432 277.949 35.3636 277.949 33.5227C277.949 31.6591 278.653 30.0795 280.062 28.7841C281.472 27.4659 283.153 26.8068 285.108 26.8068C287.085 26.8068 288.767 27.4659 290.153 28.7841C291.563 30.0795 292.267 31.6591 292.267 33.5227C292.267 35.3636 291.563 36.9432 290.153 38.2614C288.767 39.5568 287.085 40.2045 285.108 40.2045ZM316.276 30.1818V100H303.935V30.1818H316.276ZM341.307 69.3182V100H328.966V30.1818H341.034V56.5341H341.648C342.875 53.5795 344.773 51.25 347.341 49.5455C349.932 47.8182 353.227 46.9545 357.227 46.9545C360.864 46.9545 364.034 47.7159 366.739 49.2386C369.443 50.7614 371.534 52.9886 373.011 55.9205C374.511 58.8523 375.261 62.4318 375.261 66.6591V100H362.92V68.5682C362.92 65.0455 362.011 62.3068 360.193 60.3523C358.398 58.375 355.875 57.3864 352.625 57.3864C350.443 57.3864 348.489 57.8636 346.761 58.8182C345.057 59.75 343.716 61.1023 342.739 62.875C341.784 64.6477 341.307 66.7955 341.307 69.3182ZM410.682 101.023C405.568 101.023 401.136 99.8977 397.386 97.6477C393.636 95.3977 390.727 92.25 388.659 88.2045C386.614 84.1591 385.591 79.4318 385.591 74.0227C385.591 68.6136 386.614 63.875 388.659 59.8068C390.727 55.7386 393.636 52.5795 397.386 50.3295C401.136 48.0795 405.568 46.9545 410.682 46.9545C415.795 46.9545 420.227 48.0795 423.977 50.3295C427.727 52.5795 430.625 55.7386 432.67 59.8068C434.739 63.875 435.773 68.6136 435.773 74.0227C435.773 79.4318 434.739 84.1591 432.67 88.2045C430.625 92.25 427.727 95.3977 423.977 97.6477C420.227 99.8977 415.795 101.023 410.682 101.023ZM410.75 91.1364C413.523 91.1364 415.841 90.375 417.705 88.8523C419.568 87.3068 420.955 85.2386 421.864 82.6477C422.795 80.0568 423.261 77.1705 423.261 73.9886C423.261 70.7841 422.795 67.8864 421.864 65.2955C420.955 62.6818 419.568 60.6023 417.705 59.0568C415.841 57.5114 413.523 56.7386 410.75 56.7386C407.909 56.7386 405.545 57.5114 403.659 59.0568C401.795 60.6023 400.398 62.6818 399.466 65.2955C398.557 67.8864 398.102 70.7841 398.102 73.9886C398.102 77.1705 398.557 80.0568 399.466 82.6477C400.398 85.2386 401.795 87.3068 403.659 88.8523C405.545 90.375 407.909 91.1364 410.75 91.1364ZM479.622 77.9773V47.6364H491.963V100H479.997V90.6932H479.452C478.27 93.625 476.327 96.0227 473.622 97.8864C470.94 99.75 467.634 100.682 463.702 100.682C460.27 100.682 457.236 99.9205 454.599 98.3977C451.986 96.8523 449.94 94.6136 448.463 91.6818C446.986 88.7273 446.247 85.1591 446.247 80.9773V47.6364H458.588V79.0682C458.588 82.3864 459.497 85.0227 461.315 86.9773C463.134 88.9318 465.52 89.9091 468.474 89.9091C470.293 89.9091 472.054 89.4659 473.759 88.5795C475.463 87.6932 476.861 86.375 477.952 84.625C479.065 82.8523 479.622 80.6364 479.622 77.9773ZM546.04 61.4773L534.79 62.7045C534.472 61.5682 533.915 60.5 533.119 59.5C532.347 58.5 531.301 57.6932 529.983 57.0795C528.665 56.4659 527.051 56.1591 525.142 56.1591C522.574 56.1591 520.415 56.7159 518.665 57.8295C516.938 58.9432 516.085 60.3864 516.108 62.1591C516.085 63.6818 516.642 64.9205 517.778 65.875C518.938 66.8295 520.847 67.6136 523.506 68.2273L532.438 70.1364C537.392 71.2045 541.074 72.8977 543.483 75.2159C545.915 77.5341 547.142 80.5682 547.165 84.3182C547.142 87.6136 546.176 90.5227 544.267 93.0455C542.381 95.5455 539.756 97.5 536.392 98.9091C533.028 100.318 529.165 101.023 524.801 101.023C518.392 101.023 513.233 99.6818 509.324 97C505.415 94.2955 503.085 90.5341 502.335 85.7159L514.369 84.5568C514.915 86.9205 516.074 88.7045 517.847 89.9091C519.619 91.1136 521.926 91.7159 524.767 91.7159C527.699 91.7159 530.051 91.1136 531.824 89.9091C533.619 88.7045 534.517 87.2159 534.517 85.4432C534.517 83.9432 533.938 82.7045 532.778 81.7273C531.642 80.75 529.869 80 527.46 79.4773L518.528 77.6023C513.506 76.5568 509.79 74.7955 507.381 72.3182C504.972 69.8182 503.778 66.6591 503.801 62.8409C503.778 59.6136 504.653 56.8182 506.426 54.4545C508.222 52.0682 510.71 50.2273 513.892 48.9318C517.097 47.6136 520.79 46.9545 524.972 46.9545C531.108 46.9545 535.938 48.2614 539.46 50.875C543.006 53.4886 545.199 57.0227 546.04 61.4773ZM580.523 101.023C575.273 101.023 570.739 99.9318 566.92 97.75C563.125 95.5455 560.205 92.4318 558.159 88.4091C556.114 84.3636 555.091 79.6023 555.091 74.125C555.091 68.7386 556.114 64.0114 558.159 59.9432C560.227 55.8523 563.114 52.6705 566.818 50.3977C570.523 48.1023 574.875 46.9545 579.875 46.9545C583.102 46.9545 586.148 47.4773 589.011 48.5227C591.898 49.5455 594.443 51.1364 596.648 53.2955C598.875 55.4545 600.625 58.2045 601.898 61.5455C603.17 64.8636 603.807 68.8182 603.807 73.4091V77.1932H560.886V68.875H591.977C591.955 66.5114 591.443 64.4091 590.443 62.5682C589.443 60.7045 588.045 59.2386 586.25 58.1705C584.477 57.1023 582.409 56.5682 580.045 56.5682C577.523 56.5682 575.307 57.1818 573.398 58.4091C571.489 59.6136 570 61.2045 568.932 63.1818C567.886 65.1364 567.352 67.2841 567.33 69.625V76.8864C567.33 79.9318 567.886 82.5455 569 84.7273C570.114 86.8864 571.67 88.5455 573.67 89.7045C575.67 90.8409 578.011 91.4091 580.693 91.4091C582.489 91.4091 584.114 91.1591 585.568 90.6591C587.023 90.1364 588.284 89.375 589.352 88.375C590.42 87.375 591.227 86.1364 591.773 84.6591L603.295 85.9545C602.568 89 601.182 91.6591 599.136 93.9318C597.114 96.1818 594.523 97.9318 591.364 99.1818C588.205 100.409 584.591 101.023 580.523 101.023Z" fill="white"/>
</svg>
